<?xml version="1.0" encoding="UTF-8"?>
<!-- Generator: visioncortex VTracer 0.6.3 -->
<svg version="1.1" xmlns="http://www.w3.org/2000/svg" width="1280" height="1280">
<path d="M0 0 C5.09 2.63 10.22 5.13 15.41 7.54 C23.99 11.51 32.48 15.66 40.96 19.82 C45.5 22.04 50.04 24.26 54.59 26.48 C55.91 27.13 55.91 27.13 57.26 27.79 C66.49 32.29 75.74 36.72 85 41.13 C87.87 42.49 90.73 43.86 93.59 45.23 C105.73 51.06 105.73 51.06 117.94 56.75 C125.88 60.43 133.68 64.39 141.5 68.32 C149.84 72.51 158.23 76.57 166.66 80.57 C171.88 83.05 177.08 85.58 182.25 88.19 C199.65 96.97 217.31 105.27 234.89 113.69 C244.36 118.24 253.82 122.83 263.27 127.42 C273.2 132.23 283.14 137.03 293.09 141.79 C301.82 145.98 310.54 150.21 319.25 154.44 C334.03 161.61 348.83 168.76 363.69 175.77 C374.36 180.8 384.94 185.98 395.47 191.31 C409.6 198.44 423.89 205.25 438.18 212.07 C440.53 213.19 442.89 214.32 445.24 215.44 C447.47 216.51 449.69 217.57 451.92 218.63 C453.41 219.34 453.41 219.34 454.94 220.07 C455.82 220.5 456.7 220.92 457.61 221.35 C459.62 222.38 459.62 222.38 460.62 223.38 C460.72 225.04 460.75 226.72 460.75 228.39 C460.75 229.49 460.75 230.58 460.76 231.71 C460.75 233.54 460.75 233.54 460.75 235.41 C460.75 236.7 460.75 237.99 460.75 239.32 C460.75 242.93 460.75 246.54 460.75 250.16 C460.74 254.07 460.75 257.99 460.75 261.91 C460.75 268.78 460.75 275.66 460.74 282.53 C460.74 292.75 460.74 302.98 460.74 313.2 C460.74 330.4 460.74 347.59 460.73 364.79 C460.72 381.82 460.72 398.85 460.72 415.88 C460.72 416.94 460.72 418 460.72 419.09 C460.72 424.46 460.72 429.83 460.72 435.2 C460.72 473.28 460.71 511.36 460.7 549.44 C460.69 586.44 460.68 623.44 460.68 660.44 C460.68 662.15 460.68 662.15 460.68 663.9 C460.68 675.34 460.68 686.79 460.68 698.23 C460.67 721.55 460.67 744.87 460.67 768.19 C460.67 769.26 460.67 770.34 460.67 771.44 C460.66 843.09 460.64 914.73 460.62 986.38 C457.58 987.98 454.54 989.59 451.49 991.19 C450.63 991.65 449.78 992.1 448.89 992.57 C442.91 995.72 436.88 998.75 430.75 1001.62 C428.81 1002.54 426.87 1003.46 424.93 1004.38 C423.92 1004.86 422.91 1005.34 421.87 1005.83 C416.48 1008.39 411.12 1010.99 405.76 1013.59 C396.92 1017.87 388.07 1022.13 379.19 1026.31 C372.92 1029.26 366.72 1032.31 360.54 1035.43 C354.48 1038.46 348.34 1041.34 342.22 1044.26 C336.63 1046.92 331.08 1049.63 325.56 1052.44 C319.31 1055.61 312.96 1058.51 306.56 1061.38 C298.98 1064.78 291.63 1068.4 284.35 1072.4 C280.91 1074.25 277.42 1075.91 273.87 1077.54 C265.57 1081.37 257.36 1085.38 249.14 1089.39 C244.83 1091.5 240.51 1093.61 236.2 1095.71 C235.35 1096.13 234.51 1096.54 233.64 1096.96 C227.28 1100.06 220.9 1103.14 214.5 1106.19 C205.89 1110.29 197.28 1114.42 188.69 1118.56 C188.06 1118.87 187.43 1119.17 186.78 1119.48 C179.89 1122.81 173.01 1126.16 166.19 1129.62 C159.15 1133.2 151.96 1136.42 144.77 1139.66 C137.98 1142.73 131.3 1145.95 124.66 1149.33 C112.81 1155.35 100.9 1161.22 88.94 1167 C87.5 1167.69 86.07 1168.39 84.63 1169.08 C80.99 1170.85 77.36 1172.6 73.72 1174.36 C71.71 1175.33 69.7 1176.31 67.69 1177.28 C40.08 1190.63 40.08 1190.63 26.98 1196.88 C22.01 1199.25 17.05 1201.65 12.13 1204.11 C9.65 1205.34 7.17 1206.57 4.68 1207.79 C2.91 1208.67 1.15 1209.56 -0.61 1210.45 C-1.68 1210.98 -2.75 1211.51 -3.86 1212.05 C-4.81 1212.52 -5.75 1213 -6.73 1213.49 C-11.59 1215.12 -15.17 1213.17 -19.59 1211 C-20.6 1210.52 -21.6 1210.03 -22.64 1209.53 C-24.24 1208.74 -24.24 1208.74 -25.88 1207.94 C-35.7 1203.12 -35.7 1203.12 -45.66 1198.6 C-46.62 1198.17 -47.59 1197.74 -48.58 1197.3 C-50.41 1196.49 -52.24 1195.7 -54.09 1194.94 C-55.31 1194.39 -55.31 1194.39 -56.56 1193.82 C-57.64 1193.37 -57.64 1193.37 -58.73 1192.9 C-62.4 1189.5 -61.56 1181.76 -61.75 1177 C-61.78 1176.06 -61.81 1175.12 -61.85 1174.15 C-61.89 1173.13 -61.93 1172.11 -61.97 1171.07 C-62.09 1167.66 -62.22 1164.26 -62.34 1160.85 C-62.43 1158.4 -62.53 1155.95 -62.62 1153.51 C-62.82 1148.22 -63.02 1142.93 -63.21 1137.65 C-63.5 1129.91 -63.79 1122.17 -64.08 1114.43 C-64.56 1101.74 -65.03 1089.06 -65.5 1076.37 C-65.53 1075.61 -65.56 1074.85 -65.59 1074.07 C-65.76 1069.47 -65.93 1064.88 -66.1 1060.28 C-66.98 1036.7 -67.86 1013.12 -68.75 989.53 C-68.83 987.34 -68.91 985.15 -69 982.97 C-70.37 946.36 -71.84 909.76 -73.54 873.16 C-75.06 840.39 -76.37 807.61 -77.59 774.82 C-77.64 773.57 -77.69 772.32 -77.74 771.04 C-78.41 753.15 -79.07 735.26 -79.73 717.37 C-80.54 695.65 -81.34 673.92 -82.16 652.2 C-82.2 650.95 -82.25 649.7 -82.3 648.42 C-83.64 612.67 -85.1 576.92 -86.71 541.18 C-87.93 514.09 -89.04 487.01 -90.04 459.91 C-90.08 459.04 -90.11 458.17 -90.14 457.27 C-90.59 445.2 -91.03 433.13 -91.47 421.06 C-91.92 408.66 -92.37 396.25 -92.83 383.85 C-93.01 378.94 -93.19 374.03 -93.37 369.12 C-93.47 366.11 -93.59 363.1 -93.7 360.09 C-93.77 358.06 -93.84 356.04 -93.91 354.01 C-93.71 338.41 -93.71 338.41 -99.5 324.56 C-100.41 323.3 -101.32 322.03 -102.23 320.76 C-102.98 319.73 -102.98 319.73 -103.74 318.68 C-106.93 314.18 -109.88 309.51 -112.88 304.88 C-117.05 298.46 -121.24 292.05 -125.5 285.69 C-130.95 277.55 -136.27 269.33 -141.59 261.12 C-153.24 243.17 -153.24 243.17 -165.08 225.33 C-168.07 220.86 -170.97 216.32 -173.8 211.74 C-175.52 209.16 -177.41 206.77 -179.38 204.38 C-180.39 205.95 -180.39 205.95 -181.43 207.57 C-186.1 214.8 -190.78 222.03 -195.56 229.19 C-195.98 229.81 -196.39 230.43 -196.82 231.07 C-198.66 233.82 -200.5 236.57 -202.36 239.31 C-206.43 245.37 -210.37 251.5 -214.25 257.69 C-219.1 265.41 -224.08 273.03 -229.17 280.59 C-236.3 291.17 -243.31 301.83 -250.24 312.55 C-252.19 315.56 -254.16 318.55 -256.17 321.52 C-256.59 322.14 -257.01 322.77 -257.44 323.41 C-258.54 325.06 -259.65 326.7 -260.77 328.33 C-263.56 333.61 -263.51 339.4 -263.73 345.29 C-263.77 346.28 -263.77 346.28 -263.81 347.29 C-263.89 349.49 -263.97 351.69 -264.05 353.9 C-264.11 355.49 -264.17 357.08 -264.24 358.68 C-264.37 362.12 -264.5 365.57 -264.62 369.01 C-264.83 374.55 -265.04 380.09 -265.25 385.63 C-265.56 393.56 -265.86 401.5 -266.16 409.44 C-266.9 429.29 -267.66 449.15 -268.43 469 C-268.55 472.14 -268.67 475.29 -268.79 478.43 C-270.03 510.74 -271.34 543.04 -272.73 575.35 C-274.27 611.03 -275.71 646.71 -277.06 682.39 C-277.1 683.36 -277.14 684.33 -277.17 685.33 C-277.78 701.38 -278.39 717.43 -278.99 733.47 C-280.97 786.14 -283 838.81 -285.3 891.46 C-286.53 919.88 -287.69 948.29 -288.76 976.71 C-288.82 978.26 -288.87 979.81 -288.93 981.36 C-289.47 995.76 -290.01 1010.16 -290.53 1024.55 C-290.76 1030.79 -290.99 1037.03 -291.22 1043.27 C-291.31 1045.84 -291.4 1048.42 -291.5 1050.99 C-291.62 1054.51 -291.75 1058.04 -291.88 1061.56 C-291.93 1063.11 -291.93 1063.11 -291.99 1064.69 C-292.04 1066.11 -292.04 1066.11 -292.1 1067.56 C-292.14 1068.78 -292.14 1068.78 -292.19 1070.03 C-292.39 1072.54 -292.84 1074.92 -293.38 1077.38 C-301.22 1075.04 -308.23 1071.6 -315.5 1067.88 C-318 1066.61 -320.5 1065.34 -323 1064.08 C-323.63 1063.77 -324.25 1063.45 -324.9 1063.13 C-330.71 1060.19 -336.56 1057.36 -342.44 1054.56 C-343.37 1054.12 -344.3 1053.67 -345.26 1053.22 C-349.68 1051.12 -354.11 1049.03 -358.53 1046.94 C-360.17 1046.17 -361.8 1045.4 -363.44 1044.62 C-364.22 1044.25 -365.01 1043.88 -365.82 1043.5 C-371.41 1040.85 -376.95 1038.1 -382.48 1035.3 C-387.41 1032.84 -392.4 1030.49 -397.38 1028.12 C-405.08 1024.46 -412.75 1020.71 -420.38 1016.88 C-430.58 1011.74 -440.88 1006.8 -451.2 1001.89 C-456.61 999.31 -462.01 996.73 -467.41 994.13 C-469.22 993.26 -471.04 992.39 -472.86 991.53 C-474.5 990.74 -474.5 990.74 -476.18 989.93 C-477.65 989.23 -477.65 989.23 -479.15 988.51 C-481.37 987.38 -481.37 987.38 -482.38 986.38 C-482.47 984.71 -482.5 983.03 -482.5 981.36 C-482.5 980.26 -482.5 979.17 -482.51 978.04 C-482.5 976.82 -482.5 975.59 -482.5 974.34 C-482.5 973.05 -482.5 971.76 -482.5 970.43 C-482.5 966.82 -482.5 963.21 -482.5 959.59 C-482.49 955.68 -482.5 951.76 -482.5 947.84 C-482.5 940.97 -482.5 934.09 -482.49 927.22 C-482.49 917 -482.49 906.77 -482.49 896.55 C-482.49 879.35 -482.49 862.16 -482.48 844.96 C-482.47 827.93 -482.47 810.9 -482.47 793.87 C-482.47 792.81 -482.47 791.75 -482.47 790.66 C-482.47 785.29 -482.47 779.92 -482.47 774.55 C-482.47 736.47 -482.46 698.39 -482.45 660.31 C-482.44 623.31 -482.43 586.31 -482.43 549.31 C-482.43 548.17 -482.43 547.03 -482.43 545.85 C-482.43 534.41 -482.43 522.96 -482.43 511.52 C-482.42 488.2 -482.42 464.88 -482.42 441.56 C-482.42 440.49 -482.42 439.41 -482.42 438.31 C-482.41 366.66 -482.39 295.02 -482.38 223.38 C-479.35 221.78 -476.32 220.18 -473.3 218.58 C-472.02 217.91 -472.02 217.91 -470.72 217.22 C-464.11 213.74 -457.45 210.43 -450.69 207.25 C-443.82 203.99 -436.97 200.7 -430.19 197.25 C-424 194.11 -417.7 191.22 -411.38 188.38 C-403.05 184.63 -394.85 180.71 -386.72 176.57 C-371.7 168.94 -356.61 161.47 -341.39 154.24 C-334.67 151.04 -327.96 147.8 -321.25 144.56 C-320.02 143.97 -318.79 143.37 -317.56 142.78 C-315.07 141.58 -312.58 140.37 -310.1 139.17 C-304.02 136.24 -297.95 133.31 -291.88 130.38 C-289.46 129.21 -287.05 128.05 -284.64 126.88 C-284.04 126.59 -283.45 126.31 -282.83 126.01 C-279.17 124.24 -275.5 122.47 -271.84 120.7 C-269.38 119.51 -266.92 118.32 -264.46 117.13 C-263.24 116.55 -262.02 115.96 -260.81 115.37 C-254.39 112.27 -247.98 109.18 -241.56 106.11 C-240.47 105.59 -239.39 105.07 -238.27 104.53 C-236.15 103.52 -234.04 102.51 -231.92 101.5 C-226.27 98.79 -220.65 96.02 -215.06 93.19 C-209.24 90.24 -203.34 87.53 -197.38 84.88 C-189.39 81.32 -181.55 77.55 -173.75 73.58 C-159.76 66.48 -145.72 59.49 -131.55 52.75 C-123.69 49.01 -115.86 45.22 -108.03 41.42 C-91.21 33.25 -74.38 25.11 -57.44 17.19 C-52.13 14.7 -46.86 12.14 -41.62 9.5 C-39.63 8.5 -37.64 7.5 -35.64 6.51 C-34 5.69 -32.35 4.86 -30.71 4.03 C-27.88 2.61 -25.03 1.21 -22.19 -0.19 C-21.29 -0.64 -20.39 -1.1 -19.47 -1.56 C-18.62 -1.98 -17.77 -2.39 -16.89 -2.82 C-16.14 -3.19 -15.39 -3.56 -14.62 -3.95 C-9.29 -5.56 -4.63 -2.42 0 0 Z M68.62 573.38 C68.53 582.7 68.46 592.03 68.42 601.36 C68.4 605.69 68.37 610.02 68.32 614.36 C68.28 618.54 68.26 622.73 68.25 626.92 C68.24 628.51 68.22 630.1 68.2 631.69 C68.04 644.38 69.34 655.72 78.49 665.34 C88.77 675.18 100.48 678.13 114.44 678.69 C128.13 678.33 141.57 675.01 151.8 665.52 C161.36 654.25 161.92 641.29 161.82 627.28 C161.82 625.72 161.81 624.17 161.81 622.61 C161.8 618.53 161.78 614.45 161.76 610.38 C161.74 606.21 161.73 602.04 161.72 597.87 C161.7 589.7 161.67 581.54 161.62 573.38 C155.36 573.38 149.09 573.38 142.62 573.38 C142.61 575.39 142.6 577.41 142.58 579.49 C142.53 586.18 142.46 592.87 142.39 599.56 C142.34 603.61 142.31 607.67 142.28 611.72 C142.25 615.64 142.21 619.55 142.16 623.47 C142.15 624.96 142.13 626.45 142.13 627.94 C142.08 637.58 141.94 645.56 135.62 653.38 C135.62 654.03 135.62 654.69 135.62 655.38 C133.96 656.05 132.29 656.71 130.62 657.38 C129.53 657.91 128.44 658.45 127.31 659 C120 661.73 109.39 661.68 102 659.19 C96.07 656 91.24 652.32 89.06 645.65 C88.47 642.58 88.46 639.62 88.42 636.5 C88.41 635.81 88.4 635.13 88.39 634.42 C88.36 632.17 88.33 629.92 88.31 627.67 C88.29 626.11 88.27 624.54 88.25 622.98 C88.19 618.87 88.14 614.76 88.09 610.65 C88.04 606.45 87.99 602.26 87.93 598.06 C87.82 589.83 87.72 581.6 87.62 573.38 C81.36 573.38 75.09 573.38 68.62 573.38 Z M184.62 574.38 C184.53 577.54 184.5 580.69 184.51 583.85 C184.51 584.85 184.51 585.84 184.51 586.87 C184.51 590.17 184.52 593.48 184.53 596.79 C184.53 599.07 184.53 601.36 184.53 603.64 C184.54 609.67 184.55 615.7 184.56 621.73 C184.57 627.87 184.57 634.02 184.58 640.17 C184.59 652.24 184.6 664.31 184.62 676.38 C190.89 676.38 197.16 676.38 203.62 676.38 C203.96 661.86 204.28 647.34 204.62 632.38 C218.49 632.04 232.35 631.72 246.62 631.38 C246.62 626.42 246.62 621.48 246.62 616.38 C232.76 616.04 218.9 615.72 204.62 615.38 C204.62 606.79 204.62 598.22 204.62 589.38 C218.49 589.04 232.35 588.72 246.62 588.38 C246.62 583.42 246.62 578.48 246.62 573.38 C238.69 573.35 230.75 573.33 222.82 573.32 C219.13 573.32 215.45 573.31 211.76 573.3 C208.21 573.29 204.66 573.28 201.1 573.28 C199.74 573.28 198.39 573.27 197.03 573.27 C195.13 573.26 193.23 573.26 191.34 573.26 C190.26 573.26 189.18 573.26 188.06 573.25 C185.68 573.1 185.68 573.1 184.62 574.38 Z M266.62 573.38 C266.62 607.37 266.62 641.36 266.62 676.38 C288.74 676.38 310.85 676.38 333.62 676.38 C333.62 671.75 333.62 667.13 333.62 662.38 C318.12 662.04 302.61 661.72 286.62 661.38 C286.29 651.48 285.97 641.58 285.62 631.38 C300.48 631.38 315.33 631.38 330.62 631.38 C330.62 626.75 330.62 622.13 330.62 617.38 C308.85 616.88 308.85 616.88 286.62 616.38 C286.13 602.51 286.13 602.51 285.62 588.38 C301.13 588.38 316.64 588.38 332.62 588.38 C332.62 583.42 332.62 578.48 332.62 573.38 C310.85 573.38 289.07 573.38 266.62 573.38 Z " fill="#00539F" transform="translate(650.375,34.625)"/>
<path d="M0 0 C3.66 1.22 4.08 2.24 6.12 5.43 C6.72 6.36 7.32 7.29 7.94 8.25 C8.9 9.77 8.9 9.77 9.88 11.31 C10.54 12.35 11.2 13.38 11.89 14.45 C13.26 16.59 14.64 18.73 16 20.88 C18.92 25.43 21.86 29.97 24.81 34.5 C25.62 35.74 25.62 35.74 26.44 37 C29.98 42.45 33.57 47.87 37.19 53.27 C41.25 59.34 45.22 65.47 49.18 71.6 C49.69 72.38 50.2 73.17 50.73 73.98 C51.46 75.13 51.46 75.13 52.2 76.3 C53.97 79.03 53.97 79.03 56.02 81.58 C62.1 89.66 63.22 96.18 63.36 106.08 C63.41 107.63 63.47 109.19 63.52 110.74 C63.65 114.22 63.75 117.71 63.84 121.19 C64 127.43 64.25 133.67 64.51 139.9 C65.05 153.1 65.53 166.29 66.02 179.48 C66.27 186.54 66.53 193.59 66.8 200.65 C67.27 213.34 67.74 226.04 68.2 238.74 C68.23 239.49 68.26 240.24 68.29 241.02 C68.43 244.83 68.57 248.64 68.71 252.45 C69.61 276.86 70.5 301.28 71.41 325.69 C71.49 327.88 71.57 330.07 71.65 332.26 C73.05 369.76 74.52 407.27 76.2 444.77 C77.58 475.54 78.8 506.32 79.93 537.1 C79.97 538.18 80.01 539.27 80.05 540.38 C80.5 552.57 80.94 564.75 81.38 576.93 C82.23 600.5 83.1 624.08 83.97 647.65 C84.01 648.82 84.06 649.99 84.1 651.19 C86.06 704.36 88.21 757.52 90.44 810.67 C90.91 821.92 91.38 833.16 91.85 844.41 C92 848.04 92.15 851.67 92.31 855.31 C92.55 861.22 92.79 867.13 93.03 873.04 C93.12 875.19 93.21 877.34 93.3 879.49 C93.93 894.67 94.1 909.81 94 925 C92.56 924.53 91.12 924.05 89.67 923.58 C88.87 923.31 88.07 923.05 87.24 922.78 C84.68 921.89 82.29 920.81 79.87 919.58 C78.99 919.14 78.11 918.69 77.2 918.23 C76.29 917.76 75.38 917.3 74.44 916.81 C73.47 916.32 72.5 915.83 71.51 915.33 C68.67 913.89 65.83 912.45 63 911 C53.16 905.98 43.23 901.26 33.16 896.72 C25.66 893.33 18.29 889.74 10.96 885.99 C8.57 884.78 6.17 883.58 3.77 882.38 C2.43 881.71 2.43 881.71 1.06 881.03 C0.04 880.52 0.04 880.52 -1 880 C-1.03 813.56 -1.05 747.13 -1.06 680.69 C-1.06 676.83 -1.06 672.96 -1.06 669.09 C-1.09 500.91 -1.09 500.91 -0.51 185.31 C-0.5 181.8 -0.49 178.29 -0.48 174.78 C-0.33 116.52 -0.17 58.26 0 0 Z M15 84 C15.33 84.66 15.66 85.32 16 86 C18.64 86 21.28 86 24 86 C24 85.67 24 85.34 24 85 C21.03 84.67 18.06 84.34 15 84 Z M31 143 C30.95 144.06 30.9 145.12 30.85 146.21 C30.78 147.6 30.7 148.99 30.62 150.38 C30.59 151.07 30.56 151.77 30.53 152.49 C30.23 157.77 30.23 157.77 28 160 C29.98 160.99 29.98 160.99 32 162 C32.17 160.23 32.33 158.46 32.5 156.69 C32.59 155.7 32.69 154.72 32.78 153.7 C33.09 149.9 32.8 146.71 32 143 C31.67 143 31.34 143 31 143 Z M41.88 153.94 C40.45 154.46 40.45 154.46 39 155 C41.13 156.35 41.13 156.35 44.12 155.06 C45.55 154.54 45.55 154.54 47 154 C44.87 152.65 44.87 152.65 41.88 153.94 Z M37 157 C37 158.98 37 160.96 37 163 C37.33 163 37.66 163 38 163 C38 161.02 38 159.04 38 157 C37.67 157 37.34 157 37 157 Z M34 165 C35.32 165.99 36.64 166.98 38 168 C38 167.01 38 166.02 38 165 C36.68 165 35.36 165 34 165 Z M47 216 C46.67 216.66 46.34 217.32 46 218 C48.48 218.5 48.48 218.5 51 219 C51.33 218.34 51.66 217.68 52 217 C50.35 216.67 48.7 216.34 47 216 Z M28 237 C29 240 29 240 29 240 Z M28 244 C29 246 29 246 29 246 Z M28 249 C28 249.99 28 250.98 28 252 C28.66 252 29.32 252 30 252 C29.67 251.01 29.34 250.02 29 249 C28.67 249 28.34 249 28 249 Z M29 271 C30 273 30 273 30 273 Z M29 277 C30 279 30 279 30 279 Z M22 350 C22.66 350.66 23.32 351.32 24 352 C24.66 351.34 25.32 350.68 26 350 C24.68 350 23.36 350 22 350 Z M33 374 C34 376 34 376 34 376 Z M38 410 C38.33 411.32 38.66 412.64 39 414 C39 412.68 39 411.36 39 410 C38.67 410 38.34 410 38 410 Z M43 419 C42.67 422.3 42.34 425.6 42 429 C42.66 429 43.32 429 44 429 C44.33 425.7 44.66 422.4 45 419 C44.34 419 43.68 419 43 419 Z M37 420 C37 420.66 37 421.32 37 422 C34.69 422 32.38 422 30 422 C30 422.33 30 422.66 30 423 C32.64 423.33 35.28 423.66 38 424 C37.67 422.68 37.34 421.36 37 420 Z M54 476 C53.34 476.66 52.68 477.32 52 478 C53.98 478 55.96 478 58 478 C58 477.34 58 476.68 58 476 C56.68 476 55.36 476 54 476 Z M34 497 C34.33 497.66 34.66 498.32 35 499 C35.33 498.34 35.66 497.68 36 497 C35.34 497 34.68 497 34 497 Z M34 500 C34 502.31 34 504.62 34 507 C34.66 506.01 35.32 505.02 36 504 C35.34 502.68 34.68 501.36 34 500 Z M34 513 C34.66 513.66 35.32 514.32 36 515 C36 514.34 36 513.68 36 513 C35.34 513 34.68 513 34 513 Z M35 519 C36 521 36 521 36 521 Z M35 525 C36 527 36 527 36 527 Z M45 527 C46 531 46 531 46 531 Z M35 530 C36 532 36 532 36 532 Z M35 535 C36 537 36 537 36 537 Z M35 540 C35 540.99 35 541.98 35 543 C35.66 542.67 36.32 542.34 37 542 C36.34 541.34 35.68 540.68 35 540 Z M46 555 C47 557 47 557 47 557 Z M47 579 C48 583 48 583 48 583 Z M28 616 C31.11 616 32.35 615.46 35 614 C31.05 613.65 31.05 613.65 28 616 Z M45 653 C45.66 653.66 46.32 654.32 47 655 C47 654.34 47 653.68 47 653 C46.34 653 45.68 653 45 653 Z M44 670 C43.67 674.95 43.34 679.9 43 685 C41.68 685.33 40.36 685.66 39 686 C40.65 686 42.3 686 44 686 C45.14 683.72 45.27 682.03 45.5 679.5 C45.89 675.22 45.89 675.22 47 673 C46.34 673 45.68 673 45 673 C44.67 672.01 44.34 671.02 44 670 Z M49 680 C49.66 680.66 50.32 681.32 51 682 C51 681.34 51 680.68 51 680 C50.34 680 49.68 680 49 680 Z M49 688 C48.67 688.66 48.34 689.32 48 690 C48.99 690.33 49.98 690.66 51 691 C50.67 690.01 50.34 689.02 50 688 C49.67 688 49.34 688 49 688 Z M63 734 C61.02 734.99 61.02 734.99 59 736 C60.32 736.33 61.64 736.66 63 737 C63 736.01 63 735.02 63 734 Z M41 759 C41 759.66 41 760.32 41 761 C41.66 760.67 42.32 760.34 43 760 C42.34 759.67 41.68 759.34 41 759 Z M41 764 C42 768 42 768 42 768 Z M41 770 C42 773 42 773 42 773 Z M41 775 C41.33 776.32 41.66 777.64 42 779 C42.33 778.34 42.66 777.68 43 777 C42.34 776.34 41.68 775.68 41 775 Z M41 781 C41.33 782.32 41.66 783.64 42 785 C42.33 784.34 42.66 783.68 43 783 C42.34 782.34 41.68 781.68 41 781 Z M41 787 C42 790 42 790 42 790 Z M41 793 C41.33 793.99 41.66 794.98 42 796 C42 795.01 42 794.02 42 793 C41.67 793 41.34 793 41 793 Z M41 798 C41 798.66 41 799.32 41 800 C41.66 799.67 42.32 799.34 43 799 C42.34 798.67 41.68 798.34 41 798 Z M42 804 C43 806 43 806 43 806 Z M36 879 C35.34 879.66 34.68 880.32 34 881 C34.99 881 35.98 881 37 881 C37.33 880.34 37.66 879.68 38 879 C37.34 879 36.68 879 36 879 Z " fill="#00539F" transform="translate(472,288)"/>
</svg>
